<svg width="14" height="14" viewBox="0 0 14 14" fill="none" xmlns="http://www.w3.org/2000/svg">
<path d="M7 9.91677C6.7585 9.91677 6.5625 9.72077 6.5625 9.47927V0.437503C6.5625 0.196001 6.7585 0 7 0C7.24151 0 7.43751 0.196001 7.43751 0.437503V9.47927C7.43751 9.72077 7.24151 9.91677 7 9.91677Z" fill="white"/>
<path d="M7.0002 9.91686C6.88816 9.91686 6.77622 9.87424 6.69098 9.78847L4.35767 7.45516C4.18677 7.28426 4.18677 7.00719 4.35767 6.83618C4.52857 6.66528 4.80564 6.66528 4.97664 6.83618L7.00074 8.86038L9.02494 6.83618C9.19584 6.66528 9.47301 6.66528 9.64391 6.83618C9.81481 7.00719 9.81481 7.28426 9.64391 7.45516L7.31049 9.78847C7.22419 9.87424 7.11225 9.91686 7.0002 9.91686Z" fill="white"/>
<path d="M12.3959 14.0005H1.60421C0.719274 14.0005 0 13.2812 0 12.3963V9.77124C0 9.52974 0.196001 9.33374 0.437503 9.33374C0.679006 9.33374 0.875006 9.52974 0.875006 9.77124V12.3963C0.875006 12.7982 1.20228 13.1255 1.60421 13.1255H12.3959C12.7978 13.1255 13.1251 12.7982 13.1251 12.3963V9.77124C13.1251 9.52974 13.3211 9.33374 13.5626 9.33374C13.8041 9.33374 14.0001 9.52974 14.0001 9.77124V12.3963C14.0001 13.2812 13.2808 14.0005 12.3959 14.0005Z" fill="white"/>
</svg>
