<svg width="32" height="50" viewBox="0 0 32 50" fill="none" xmlns="http://www.w3.org/2000/svg">
<path d="M23.7644 14.258C23.9538 14.6088 24.3916 14.7397 24.7423 14.5504C25.0931 14.3611 25.2241 13.9233 25.0348 13.5725C22.7922 9.26559 17.3649 6.91889 12.6333 8.3359C6.92219 9.95201 3.59066 15.9132 5.20667 21.6242C6.8043 27.3826 12.9085 30.6516 18.4951 29.0508C23.2417 27.7076 26.4623 23.3298 26.3269 18.4049C26.316 18.0065 25.9862 17.6932 25.5856 17.7033C25.1871 17.7142 24.873 18.0461 24.884 18.4445C25.0012 22.7085 22.2123 26.4988 18.1021 27.6619C13.1569 29.0612 7.99498 26.1764 6.59568 21.2312C5.19637 16.2859 8.0812 11.1242 13.0263 9.72481C17.1951 8.5452 21.7107 10.4518 23.7644 14.258Z" fill="white"/>
<path d="M17.7921 23.9937C18.5322 24.7595 19.993 24.8768 20.8541 23.9937C21.6982 23.1495 21.6982 21.7759 20.854 20.9316C20.1139 20.1657 18.6529 20.0486 17.7921 20.9316C17.0261 21.6719 16.9088 23.1325 17.7921 23.9937ZM18.8128 21.9523C19.0275 21.747 19.4699 21.6251 19.8333 21.9523C20.1148 22.2336 20.1148 22.6916 19.8334 22.9729C19.6185 23.1781 19.1761 23.3002 18.8128 22.9729C18.6075 22.7584 18.4855 22.3156 18.8128 21.9523Z" fill="#289678"/>
<path d="M13.3188 16.4593C14.0848 15.7192 14.2019 14.2583 13.3189 13.3972C12.5788 12.6313 11.1178 12.5141 10.2569 13.3972C9.491 14.1374 9.3737 15.5983 10.2568 16.4593C10.9969 17.2251 12.4578 17.3424 13.3188 16.4593ZM11.2774 15.4386C11.0723 15.2237 10.9504 14.7815 11.2775 14.418C11.4924 14.2127 11.9347 14.0908 12.2982 14.418C12.6626 14.7597 12.5333 15.6173 11.7878 15.65C11.6675 15.6463 11.4887 15.6094 11.2774 15.4386Z" fill="#289678"/>
<path d="M10.9563 23.9673C11.141 23.9673 11.3257 23.8968 11.4667 23.7558L20.6087 14.6139C20.8906 14.332 20.8906 13.875 20.6087 13.5932C20.3267 13.3114 19.8698 13.3114 19.588 13.5932L10.446 22.7352C10.1035 23.0669 10.2231 23.9577 10.9563 23.9673Z" fill="#289678"/>
<path d="M26.3173 6.0339C26.3173 5.63531 25.9943 5.31217 25.5956 5.31217C25.1969 5.31217 24.8739 5.63531 24.8739 6.0339V8.81711C23.8328 7.83353 22.6705 7.04655 21.4355 6.4554V1.69271C21.4355 0.759362 20.6762 0 19.7429 0H11.694C10.7607 0 10.0013 0.759362 10.0013 1.69271V6.31134C8.65511 6.91452 7.3864 7.74846 6.25472 8.8148V6.0339C6.25472 5.63531 5.93167 5.31217 5.53298 5.31217C5.1343 5.31217 4.81125 5.63531 4.81125 6.0339V10.4074C2.53845 13.3554 1.55699 17.1382 2.16286 20.8753C2.22666 21.2687 2.59706 21.536 2.99084 21.4722C3.38433 21.4084 3.65156 21.0377 3.58776 20.6442C2.94744 16.694 4.29083 12.6865 7.18133 9.92425C12.0166 5.3038 19.7073 5.47547 24.3253 10.3066C26.5623 12.6467 27.7535 15.7184 27.6793 18.9558C27.6051 22.1933 26.2742 25.2089 23.9321 27.4471C19.0971 32.0676 11.4062 31.8959 6.78813 27.0648C6.03521 26.2771 5.39345 25.3966 4.88082 24.4476C4.69144 24.0969 4.25339 23.9662 3.90282 24.1556C3.55206 24.3451 3.42138 24.783 3.61086 25.1337C4.18478 26.1961 4.90276 27.1814 5.74479 28.0623C6.99416 29.3693 8.44427 30.3714 10.0015 31.0668V34.899C10.0015 35.0364 9.88967 35.1481 9.75225 35.1481H5.3793C4.68874 35.1481 4.09192 35.5429 3.8216 36.1784C3.55129 36.8138 3.68091 37.5176 4.15995 38.015L14.4993 48.7521C14.8213 49.0865 15.2543 49.2706 15.7185 49.2706C16.1828 49.2706 16.6158 49.0864 16.9379 48.752L21.2338 44.2908C21.5103 44.0037 21.5016 43.5468 21.2146 43.2704C20.9274 42.9937 20.4705 43.0025 20.1941 43.2896L15.8982 47.7508C15.8342 47.8172 15.7582 47.8271 15.7186 47.8271C15.679 47.8271 15.6031 47.8172 15.5391 47.7508L5.19954 37.0137C5.10013 36.9104 5.12564 36.8 5.14979 36.7433C5.17385 36.6867 5.23572 36.5916 5.37911 36.5916H9.75206C10.6854 36.5916 11.4448 35.8323 11.4448 34.899V31.6138C12.7777 32.0344 14.1641 32.2462 15.5518 32.2461C17.053 32.246 18.5553 31.9984 19.992 31.5031V34.8989C19.992 35.8323 20.7514 36.5915 21.6848 36.5915H26.0578C26.2012 36.5915 26.2631 36.6866 26.2871 36.7432C26.3113 36.7999 26.3369 36.9102 26.2373 37.0136L22.5143 40.8798C22.2378 41.1668 22.2465 41.6238 22.5335 41.9002C22.6735 42.035 22.8539 42.1021 23.034 42.1021C23.2233 42.1021 23.4124 42.0281 23.554 41.881L27.277 38.0148C27.756 37.5174 27.8856 36.8136 27.6154 36.1782C27.3452 35.5428 26.7483 35.148 26.0577 35.148H21.6847C21.5472 35.148 21.4354 35.0361 21.4354 34.8988V30.9105C22.6893 30.3084 23.8706 29.5023 24.9293 28.4907C27.5502 25.9861 29.0392 22.6117 29.1223 18.9889C29.1942 15.855 28.2056 12.8603 26.3173 10.4135V6.0339ZM11.4448 5.76118V1.69271C11.4448 1.55529 11.5566 1.44347 11.694 1.44347H19.7429C19.8803 1.44347 19.992 1.55529 19.992 1.69271V5.86377C17.2356 4.91714 14.2279 4.87961 11.4448 5.76118Z" fill="white"/>
<path d="M30.4073 0C30.0086 0 29.6855 0.323145 29.6855 0.721736V12.0414C29.6855 12.44 30.0086 12.7632 30.4073 12.7632C30.806 12.7632 31.129 12.44 31.129 12.0414V0.721736C31.129 0.323145 30.806 0 30.4073 0Z" fill="white"/>
<path d="M0.721736 0C0.323049 0 0 0.323145 0 0.721736V12.0414C0 12.44 0.323049 12.7632 0.721736 12.7632C1.12042 12.7632 1.44347 12.44 1.44347 12.0414V0.721736C1.44347 0.323145 1.12033 0 0.721736 0Z" fill="white"/>
</svg>
