<svg width="19" height="18" viewBox="0 0 19 18" fill="none" xmlns="http://www.w3.org/2000/svg">
<path d="M4.5009 11.5532C6.21515 13.6024 8.27874 15.2158 10.634 16.3574C11.5308 16.7824 12.73 17.2866 14.0661 17.373C14.149 17.3766 14.2282 17.3802 14.311 17.3802C15.2078 17.3802 15.928 17.0705 16.5151 16.433C16.5187 16.4294 16.5259 16.4222 16.5295 16.415C16.7383 16.1629 16.976 15.936 17.2245 15.6947C17.3938 15.5327 17.5667 15.3634 17.7323 15.1906C18.4994 14.3911 18.4994 13.3755 17.7251 12.6012L15.5607 10.4368C15.1934 10.055 14.754 9.85334 14.293 9.85334C13.832 9.85334 13.3891 10.055 13.0109 10.4332L11.7216 11.7224C11.6028 11.654 11.4803 11.5928 11.3651 11.5352C11.2211 11.4631 11.0878 11.3947 10.969 11.3191C9.79491 10.5736 8.72891 9.60124 7.70972 8.35157C7.19473 7.69972 6.84899 7.15231 6.6077 6.5941C6.94623 6.28798 7.26315 5.96746 7.56927 5.65414C7.67731 5.5425 7.78895 5.43086 7.90059 5.31922C8.28954 4.93027 8.49842 4.4801 8.49842 4.02272C8.49842 3.56535 8.29314 3.11518 7.90059 2.72623L6.82739 1.65303C6.70134 1.52698 6.58249 1.40453 6.46005 1.27848C6.22236 1.03359 5.97386 0.781496 5.72897 0.55461C5.35803 0.190872 4.92226 0 4.46129 0C4.00392 0 3.56455 0.190872 3.1792 0.558212L1.83229 1.90512C1.34251 2.39491 1.0652 2.98913 1.00758 3.67699C0.939153 4.53772 1.09761 5.45247 1.50817 6.55809C2.13841 8.26873 3.08917 9.85694 4.5009 11.5532ZM1.88631 3.75262C1.92953 3.27364 2.1132 2.87389 2.45893 2.52816L3.79864 1.18845C4.00752 0.986774 4.238 0.882334 4.46129 0.882334C4.68097 0.882334 4.90426 0.986774 5.10953 1.19565C5.35083 1.41894 5.57771 1.65303 5.82261 1.90152C5.94505 2.02757 6.0711 2.15362 6.19715 2.28327L7.27035 3.35647C7.49364 3.57976 7.60888 3.80664 7.60888 4.02993C7.60888 4.25321 7.49364 4.4801 7.27035 4.70338C7.15871 4.81503 7.04707 4.93027 6.93543 5.04191C6.6005 5.38044 6.28718 5.70096 5.94145 6.00708C5.93425 6.01428 5.93065 6.01788 5.92344 6.02508C5.62453 6.324 5.67135 6.60851 5.74338 6.82459C5.74698 6.83539 5.75058 6.84259 5.75418 6.8534C6.03148 7.51965 6.41683 8.15349 7.01826 8.90978C8.09867 10.2423 9.2367 11.2759 10.49 12.0718C10.6448 12.1726 10.8105 12.2518 10.9654 12.3311C11.1094 12.4031 11.2427 12.4715 11.3615 12.5472C11.3759 12.5544 11.3867 12.5616 11.4011 12.5688C11.52 12.63 11.6352 12.6588 11.7505 12.6588C12.0386 12.6588 12.2258 12.4751 12.2871 12.4139L13.634 11.067C13.8428 10.8581 14.0697 10.7465 14.293 10.7465C14.5667 10.7465 14.79 10.9157 14.9305 11.067L17.1021 13.235C17.5342 13.6672 17.5306 14.1354 17.0913 14.5927C16.94 14.7548 16.7816 14.9097 16.6123 15.0717C16.3602 15.3166 16.0973 15.5687 15.8596 15.8532C15.4455 16.2998 14.9521 16.5087 14.3146 16.5087C14.2534 16.5087 14.1886 16.5051 14.1274 16.5015C12.9461 16.4258 11.8477 15.9649 11.023 15.5723C8.78293 14.4883 6.81658 12.9505 5.18516 10.9986C3.84185 9.38156 2.93791 7.87619 2.34008 6.26277C1.96914 5.2724 1.82869 4.4765 1.88631 3.75262Z" fill="white"/>
</svg>
