<svg width="27" height="34" viewBox="0 0 27 34" fill="none" xmlns="http://www.w3.org/2000/svg">
<path d="M4.59538 32.0653C4.86174 32.0653 5.07749 31.8495 5.07749 31.5832V25.4131C5.07749 25.147 4.86174 24.931 4.59538 24.931C4.32902 24.931 4.11328 25.147 4.11328 25.4131V31.5832C4.11328 31.8495 4.32902 32.0653 4.59538 32.0653Z" fill="#289678"/>
<path d="M6.65202 32.0653C6.91838 32.0653 7.13413 31.8495 7.13413 31.5832V25.4131C7.13413 25.147 6.91838 24.931 6.65202 24.931C6.38567 24.931 6.16992 25.147 6.16992 25.4131V31.5832C6.16992 31.8495 6.38567 32.0653 6.65202 32.0653Z" fill="#289678"/>
<path d="M8.70867 32.0653C8.97502 32.0653 9.19077 31.8495 9.19077 31.5832V25.4131C9.19077 25.147 8.97502 24.931 8.70867 24.931C8.44231 24.931 8.22656 25.147 8.22656 25.4131V31.5832C8.22656 31.8495 8.44231 32.0653 8.70867 32.0653Z" fill="#289678"/>
<path d="M10.7663 32.0653C11.0326 32.0653 11.2484 31.8495 11.2484 31.5832V25.4131C11.2484 25.147 11.0326 24.931 10.7663 24.931C10.4999 24.931 10.2842 25.147 10.2842 25.4131V31.5832C10.2842 31.8495 10.4999 32.0653 10.7663 32.0653Z" fill="#289678"/>
<path d="M12.8229 32.0653C13.0893 32.0653 13.305 31.8495 13.305 31.5832V25.4131C13.305 25.147 13.0893 24.931 12.8229 24.931C12.5566 24.931 12.3408 25.147 12.3408 25.4131V31.5832C12.3408 31.8495 12.5566 32.0653 12.8229 32.0653Z" fill="#289678"/>
<path d="M14.8796 32.0653C15.1459 32.0653 15.3617 31.8495 15.3617 31.5832V25.4131C15.3617 25.147 15.1459 24.931 14.8796 24.931C14.6132 24.931 14.3975 25.147 14.3975 25.4131V31.5832C14.3975 31.8495 14.6132 32.0653 14.8796 32.0653Z" fill="#289678"/>
<path d="M16.9362 32.0653C17.2026 32.0653 17.4183 31.8495 17.4183 31.5832V25.4131C17.4183 25.147 17.2026 24.931 16.9362 24.931C16.6698 24.931 16.4541 25.147 16.4541 25.4131V31.5832C16.4541 31.8495 16.6698 32.0653 16.9362 32.0653Z" fill="#289678"/>
<path d="M18.9919 32.0653C19.2582 32.0653 19.474 31.8495 19.474 31.5832V25.4131C19.474 25.147 19.2582 24.931 18.9919 24.931C18.7255 24.931 18.5098 25.147 18.5098 25.4131V31.5832C18.5098 31.8495 18.7255 32.0653 18.9919 32.0653Z" fill="#289678"/>
<path d="M21.0485 25.8952H21.0806V26.4414C21.0806 26.7078 21.2963 26.9235 21.5627 26.9235C21.829 26.9235 22.0448 26.7078 22.0448 26.4414V25.4131C22.0448 25.147 21.829 24.931 21.5627 24.931H21.0485C20.7821 24.931 20.5664 25.147 20.5664 25.4131C20.5664 25.6794 20.7821 25.8952 21.0485 25.8952Z" fill="#289678"/>
<path d="M2.53827 24.931H2.0241C1.75774 24.931 1.54199 25.147 1.54199 25.4131V26.4414C1.54199 26.7078 1.75774 26.9235 2.0241 26.9235C2.2902 26.9235 2.5062 26.7078 2.5062 26.4414V25.8952H2.53827C2.80438 25.8952 3.02037 25.6794 3.02037 25.4131C3.02037 25.147 2.80438 24.931 2.53827 24.931Z" fill="#289678"/>
<path d="M21.0485 32.0652H21.5627C21.829 32.0652 22.0448 31.8494 22.0448 31.5831V30.5547C22.0448 30.2886 21.829 30.0726 21.5627 30.0726C21.2963 30.0726 21.0806 30.2886 21.0806 30.5547V31.101H21.0485C20.7821 31.101 20.5664 31.317 20.5664 31.5831C20.5664 31.8494 20.7821 32.0652 21.0485 32.0652Z" fill="#289678"/>
<path d="M2.53827 31.101H2.5062V30.5547C2.5062 30.2886 2.2902 30.0726 2.0241 30.0726C1.75774 30.0726 1.54199 30.2886 1.54199 30.5547V31.5831C1.54199 31.8494 1.75774 32.0652 2.0241 32.0652H2.53827C2.80438 32.0652 3.02037 31.8494 3.02037 31.5831C3.02037 31.317 2.80438 31.101 2.53827 31.101Z" fill="#289678"/>
<path d="M26.1909 14.1332H23.588V9.07717C23.588 8.81106 23.3722 8.59531 23.1059 8.59531C22.8395 8.59531 22.6238 8.81106 22.6238 9.07717V14.1332H0.964206V5.84226H22.6238V6.78467C22.6238 7.05103 22.8395 7.26677 23.1059 7.26677C23.3722 7.26677 23.588 7.05103 23.588 6.78467V5.36016C23.588 5.0938 23.3722 4.87806 23.1059 4.87806H20.5909L13.0551 3.105C13.2125 2.86671 13.3044 2.58156 13.3044 2.2751C13.3044 1.4422 12.6269 0.764648 11.794 0.764648C10.9611 0.764648 10.2835 1.4422 10.2835 2.2751C10.2835 2.58156 10.3755 2.86671 10.5328 3.105L2.99686 4.87806H0.482103C0.215744 4.87806 0 5.0938 0 5.36016V14.6153C0 14.8814 0.215744 15.0974 0.482103 15.0974H3.08506V23.3884H0.482103C0.215744 23.3884 0 23.6044 0 23.8705V33.1257C0 33.392 0.215744 33.6078 0.482103 33.6078H23.1059C23.3722 33.6078 23.588 33.392 23.588 33.1257V24.3526H26.1909C26.4573 24.3526 26.673 24.1369 26.673 23.8705V14.6153C26.673 14.3492 26.4573 14.1332 26.1909 14.1332ZM11.794 1.72885C12.0952 1.72885 12.3402 1.97391 12.3402 2.2751C12.3402 2.57629 12.0952 2.82135 11.794 2.82135C11.4928 2.82135 11.2477 2.57629 11.2477 2.2751C11.2477 1.97391 11.4928 1.72885 11.794 1.72885ZM11.794 3.79859L16.3817 4.87806H7.20624L11.794 3.79859ZM22.6238 32.6436H0.964206V24.3526H22.6238V32.6436ZM25.7088 23.3884H4.04926V15.0974H25.7088V23.3884Z" fill="#289678"/>
<path d="M7.68035 15.6757C7.41399 15.6757 7.19824 15.8917 7.19824 16.1578V22.3279C7.19824 22.5943 7.41399 22.81 7.68035 22.81C7.9467 22.81 8.16245 22.5943 8.16245 22.3279V16.1578C8.16245 15.8917 7.9467 15.6757 7.68035 15.6757Z" fill="#289678"/>
<path d="M9.73699 15.6757C9.47063 15.6757 9.25488 15.8917 9.25488 16.1578V22.3279C9.25488 22.5943 9.47063 22.81 9.73699 22.81C10.0033 22.81 10.2191 22.5943 10.2191 22.3279V16.1578C10.2191 15.8917 10.0033 15.6757 9.73699 15.6757Z" fill="#289678"/>
<path d="M11.7936 15.6757C11.5273 15.6757 11.3115 15.8917 11.3115 16.1578V22.3279C11.3115 22.5943 11.5273 22.81 11.7936 22.81C12.06 22.81 12.2757 22.5943 12.2757 22.3279V16.1578C12.2757 15.8917 12.06 15.6757 11.7936 15.6757Z" fill="#289678"/>
<path d="M13.8503 15.6757C13.5839 15.6757 13.3682 15.8917 13.3682 16.1578V22.3279C13.3682 22.5943 13.5839 22.81 13.8503 22.81C14.1166 22.81 14.3324 22.5943 14.3324 22.3279V16.1578C14.3324 15.8917 14.1166 15.6757 13.8503 15.6757Z" fill="#289678"/>
<path d="M15.9069 15.6757C15.6405 15.6757 15.4248 15.8917 15.4248 16.1578V22.3279C15.4248 22.5943 15.6405 22.81 15.9069 22.81C16.1733 22.81 16.389 22.5943 16.389 22.3279V16.1578C16.389 15.8917 16.1733 15.6757 15.9069 15.6757Z" fill="#289678"/>
<path d="M17.9645 15.6757C17.6982 15.6757 17.4824 15.8917 17.4824 16.1578V22.3279C17.4824 22.5943 17.6982 22.81 17.9645 22.81C18.2309 22.81 18.4466 22.5943 18.4466 22.3279V16.1578C18.4466 15.8917 18.2309 15.6757 17.9645 15.6757Z" fill="#289678"/>
<path d="M20.0212 15.6757C19.7548 15.6757 19.5391 15.8917 19.5391 16.1578V22.3279C19.5391 22.5943 19.7548 22.81 20.0212 22.81C20.2875 22.81 20.5033 22.5943 20.5033 22.3279V16.1578C20.5033 15.8917 20.2875 15.6757 20.0212 15.6757Z" fill="#289678"/>
<path d="M22.0778 15.6757C21.8114 15.6757 21.5957 15.8917 21.5957 16.1578V22.3279C21.5957 22.5943 21.8114 22.81 22.0778 22.81C22.3442 22.81 22.5599 22.5943 22.5599 22.3279V16.1578C22.5599 15.8917 22.3442 15.6757 22.0778 15.6757Z" fill="#289678"/>
<path d="M24.1344 16.6399H24.1665V17.1862C24.1665 17.4523 24.3823 17.6683 24.6486 17.6683C24.915 17.6683 25.1307 17.4523 25.1307 17.1862V16.1578C25.1307 15.8917 24.915 15.6757 24.6486 15.6757H24.1344C23.8681 15.6757 23.6523 15.8917 23.6523 16.1578C23.6523 16.4239 23.8681 16.6399 24.1344 16.6399Z" fill="#289678"/>
<path d="M5.62421 15.6757H5.11003C4.84367 15.6757 4.62793 15.8917 4.62793 16.1578V17.1862C4.62793 17.4523 4.84367 17.6683 5.11003 17.6683C5.37639 17.6683 5.59214 17.4523 5.59214 17.1862V16.6399H5.62421C5.89057 16.6399 6.10631 16.4239 6.10631 16.1578C6.10631 15.8917 5.89057 15.6757 5.62421 15.6757Z" fill="#289678"/>
<path d="M24.1344 22.8101H24.6486C24.915 22.8101 25.1307 22.5944 25.1307 22.328V21.2997C25.1307 21.0336 24.915 20.8176 24.6486 20.8176C24.3823 20.8176 24.1665 21.0336 24.1665 21.2997V21.8459H24.1344C23.8681 21.8459 23.6523 22.0619 23.6523 22.328C23.6523 22.5944 23.8681 22.8101 24.1344 22.8101Z" fill="#289678"/>
<path d="M5.62421 21.8459H5.59214V21.2997C5.59214 21.0336 5.37639 20.8176 5.11003 20.8176C4.84367 20.8176 4.62793 21.0336 4.62793 21.2997V22.328C4.62793 22.5944 4.84367 22.8101 5.11003 22.8101H5.62421C5.89057 22.8101 6.10631 22.5944 6.10631 22.328C6.10631 22.0619 5.89057 21.8459 5.62421 21.8459Z" fill="#289678"/>
<path d="M4.11328 6.90276V13.0729C4.11328 13.339 4.32902 13.555 4.59538 13.555C4.86174 13.555 5.07749 13.339 5.07749 13.0729V6.90276C5.07749 6.6364 4.86174 6.42065 4.59538 6.42065C4.32902 6.42065 4.11328 6.6364 4.11328 6.90276Z" fill="#289678"/>
<path d="M6.16992 6.90276V13.0729C6.16992 13.339 6.38567 13.555 6.65202 13.555C6.91838 13.555 7.13413 13.339 7.13413 13.0729V6.90276C7.13413 6.6364 6.91838 6.42065 6.65202 6.42065C6.38567 6.42065 6.16992 6.6364 6.16992 6.90276Z" fill="#289678"/>
<path d="M8.22656 6.90276V13.0729C8.22656 13.339 8.44231 13.555 8.70867 13.555C8.97502 13.555 9.19077 13.339 9.19077 13.0729V6.90276C9.19077 6.6364 8.97502 6.42065 8.70867 6.42065C8.44231 6.42065 8.22656 6.6364 8.22656 6.90276Z" fill="#289678"/>
<path d="M10.2842 6.90276V13.0729C10.2842 13.339 10.4999 13.555 10.7663 13.555C11.0326 13.555 11.2484 13.339 11.2484 13.0729V6.90276C11.2484 6.6364 11.0326 6.42065 10.7663 6.42065C10.4999 6.42065 10.2842 6.6364 10.2842 6.90276Z" fill="#289678"/>
<path d="M12.3408 6.90276V13.0729C12.3408 13.339 12.5566 13.555 12.8229 13.555C13.0893 13.555 13.305 13.339 13.305 13.0729V6.90276C13.305 6.6364 13.0893 6.42065 12.8229 6.42065C12.5566 6.42065 12.3408 6.6364 12.3408 6.90276Z" fill="#289678"/>
<path d="M14.3975 6.90276V13.0729C14.3975 13.339 14.6132 13.555 14.8796 13.555C15.1459 13.555 15.3617 13.339 15.3617 13.0729V6.90276C15.3617 6.6364 15.1459 6.42065 14.8796 6.42065C14.6132 6.42065 14.3975 6.6364 14.3975 6.90276Z" fill="#289678"/>
<path d="M16.4541 6.90276V13.0729C16.4541 13.339 16.6698 13.555 16.9362 13.555C17.2026 13.555 17.4183 13.339 17.4183 13.0729V6.90276C17.4183 6.6364 17.2026 6.42065 16.9362 6.42065C16.6698 6.42065 16.4541 6.6364 16.4541 6.90276Z" fill="#289678"/>
<path d="M18.5098 6.90276V13.0729C18.5098 13.339 18.7255 13.555 18.9919 13.555C19.2582 13.555 19.474 13.339 19.474 13.0729V6.90276C19.474 6.6364 19.2582 6.42065 18.9919 6.42065C18.7255 6.42065 18.5098 6.6364 18.5098 6.90276Z" fill="#289678"/>
<path d="M22.0448 6.90276C22.0448 6.6364 21.829 6.42065 21.5627 6.42065H21.0485C20.7821 6.42065 20.5664 6.6364 20.5664 6.90276C20.5664 7.16887 20.7821 7.38486 21.0485 7.38486H21.0806V7.93111C21.0806 8.19722 21.2963 8.41321 21.5627 8.41321C21.829 8.41321 22.0448 8.19722 22.0448 7.93111V6.90276Z" fill="#289678"/>
<path d="M2.53827 6.42065H2.0241C1.75774 6.42065 1.54199 6.6364 1.54199 6.90276V7.93111C1.54199 8.19722 1.75774 8.41321 2.0241 8.41321C2.2902 8.41321 2.5062 8.19722 2.5062 7.93111V7.38486H2.53827C2.80438 7.38486 3.02037 7.16887 3.02037 6.90276C3.02037 6.6364 2.80438 6.42065 2.53827 6.42065Z" fill="#289678"/>
<path d="M21.5627 11.5623C21.2963 11.5623 21.0806 11.7781 21.0806 12.0444V12.5907H21.0485C20.7821 12.5907 20.5664 12.8067 20.5664 13.0728C20.5664 13.3389 20.7821 13.5549 21.0485 13.5549H21.5627C21.829 13.5549 22.0448 13.3389 22.0448 13.0728V12.0444C22.0448 11.7781 21.829 11.5623 21.5627 11.5623Z" fill="#289678"/>
<path d="M2.0241 11.5623C1.75774 11.5623 1.54199 11.7781 1.54199 12.0444V13.0728C1.54199 13.3389 1.75774 13.5549 2.0241 13.5549H2.53827C2.80438 13.5549 3.02037 13.3389 3.02037 13.0728C3.02037 12.8067 2.80438 12.5907 2.53827 12.5907H2.5062V12.0444C2.5062 11.7781 2.2902 11.5623 2.0241 11.5623Z" fill="#289678"/>
</svg>
