<svg width="34" height="32" viewBox="0 0 34 32" fill="none" xmlns="http://www.w3.org/2000/svg">
<path d="M30.8409 12.0995C29.9235 12.0995 29.0887 12.5714 28.6397 13.2963L18.9131 10.7478C19.351 10.3138 19.6206 9.72603 19.6206 9.07967C19.6206 8.74616 19.3352 8.4757 18.9831 8.4757C18.631 8.4757 18.3456 8.74616 18.3456 9.07967C18.3456 9.74572 17.7736 10.2876 17.0705 10.2876C16.3675 10.2876 15.7955 9.74572 15.7955 9.07967C15.7955 8.41361 16.3675 7.87173 17.0705 7.87173C17.4226 7.87173 17.708 7.60128 17.708 7.26777V5.69745H18.9831C19.2246 5.69745 19.4453 5.5682 19.5533 5.36358L21.4658 1.73978C21.5646 1.55255 21.5541 1.33023 21.4379 1.15218C21.3218 0.974135 21.1166 0.865723 20.8956 0.865723H13.2454C13.0244 0.865723 12.8192 0.974135 12.7031 1.15218C12.587 1.33017 12.5764 1.55255 12.6752 1.73978L14.5878 5.36358C14.6958 5.5682 14.9165 5.69745 15.158 5.69745H16.433V6.74026C15.3344 7.00909 14.5204 7.95605 14.5204 9.07967C14.5204 9.72609 14.7904 10.3136 15.2284 10.7476L5.50074 13.2963C5.05109 12.5707 4.21677 12.0995 3.30008 12.0995C1.89397 12.0995 0.75 13.1833 0.75 14.5154V31.1848C0.75 31.5183 1.03542 31.7888 1.38752 31.7888H14.2017C14.5538 31.7888 14.8392 31.5183 14.8392 31.1848C14.8392 30.8513 14.5538 30.5809 14.2017 30.5809H2.02504V16.9312H32.116V30.5809H19.9394C19.5872 30.5809 19.3018 30.8513 19.3018 31.1848C19.3018 31.5183 19.5872 31.7888 19.9394 31.7888H32.7535C33.1056 31.7888 33.391 31.5183 33.391 31.1848C33.391 30.526 33.391 15.2982 33.391 14.5154C33.391 13.1833 32.2471 12.0995 30.8409 12.0995ZM15.5519 4.48952L14.2769 2.07366H19.8641L18.5891 4.48952H15.5519ZM4.57512 15.7233H2.02504V14.5154C2.02504 13.8493 2.59702 13.3074 3.30008 13.3074C3.99651 13.3074 4.57512 13.8456 4.57512 14.5154V15.7233ZM28.2909 14.5154V15.7233H5.85016C5.85016 15.7233 5.84857 14.4776 5.84806 14.4586L17.0705 11.5182L28.293 14.4586C28.2925 14.4776 28.2909 14.4964 28.2909 14.5154ZM32.116 15.7233H29.5659V14.5154C29.5659 13.8464 30.1425 13.3074 30.8409 13.3074C31.544 13.3074 32.116 13.8493 32.116 14.5154V15.7233Z" fill="#289678"/>
<path d="M8.52832 19.951V27.561C8.52832 27.8945 8.81374 28.165 9.16584 28.165C9.51794 28.165 9.80336 27.8945 9.80336 27.561V19.951C9.80336 19.6175 9.51794 19.347 9.16584 19.347C8.81374 19.347 8.52832 19.6175 8.52832 19.951Z" fill="#289678"/>
<path d="M4.5752 19.951V27.561C4.5752 27.8945 4.86061 28.165 5.21272 28.165C5.56482 28.165 5.85024 27.8945 5.85024 27.561V19.951C5.85024 19.6175 5.56482 19.347 5.21272 19.347C4.86061 19.347 4.5752 19.6175 4.5752 19.951Z" fill="#289678"/>
<path d="M29.5661 27.561V19.951C29.5661 19.6175 29.2806 19.347 28.9285 19.347C28.5764 19.347 28.291 19.6175 28.291 19.951V27.561C28.291 27.8945 28.5764 28.165 28.9285 28.165C29.2806 28.165 29.5661 27.8945 29.5661 27.561Z" fill="#289678"/>
<path d="M25.6129 27.561V19.951C25.6129 19.6175 25.3275 19.347 24.9754 19.347C24.6233 19.347 24.3379 19.6175 24.3379 19.951V27.561C24.3379 27.8945 24.6233 28.165 24.9754 28.165C25.3275 28.165 25.6129 27.8945 25.6129 27.561Z" fill="#289678"/>
<path d="M21.6608 27.561V19.951C21.6608 19.6175 21.3754 19.347 21.0233 19.347C20.6712 19.347 20.3857 19.6175 20.3857 19.951V27.561C20.3857 27.8945 20.6712 28.165 21.0233 28.165C21.3754 28.165 21.6608 27.8945 21.6608 27.561Z" fill="#289678"/>
<path d="M17.0711 19.347C16.719 19.347 16.4336 19.6175 16.4336 19.951V27.561C16.4336 27.8945 16.719 28.165 17.0711 28.165C17.4232 28.165 17.7086 27.8945 17.7086 27.561V19.951C17.7086 19.6175 17.4232 19.347 17.0711 19.347Z" fill="#289678"/>
<path d="M12.4805 19.951V27.561C12.4805 27.8945 12.7659 28.165 13.118 28.165C13.4701 28.165 13.7555 27.8945 13.7555 27.561V19.951C13.7555 19.6175 13.4701 19.347 13.118 19.347C12.7659 19.347 12.4805 19.6175 12.4805 19.951Z" fill="#289678"/>
<path d="M17.0711 31.7889C17.4232 31.7889 17.7086 31.5185 17.7086 31.1849C17.7086 30.8513 17.4232 30.5809 17.0711 30.5809C16.719 30.5809 16.4336 30.8513 16.4336 31.1849C16.4336 31.5185 16.719 31.7889 17.0711 31.7889Z" fill="#289678"/>
</svg>
