<svg width="34" height="24" viewBox="0 0 34 24" fill="none" xmlns="http://www.w3.org/2000/svg">
<path d="M0.578125 0.5H32.9921V22.7925H0.578125V0.5Z" stroke="#289678"/>
<path d="M6.95984 5.56281L8.13094 7.93584L10.7494 8.31625L8.85448 10.1633L9.30203 12.7716L6.95984 11.5401L4.61733 12.7716L5.06488 10.1633L3.16992 8.31625L5.78842 7.93584L6.95984 5.56281Z" fill="#289678"/>
<path d="M13.8961 10.1176L14.3642 11.0657L15.4106 11.2176L14.6533 11.956L14.832 12.9979L13.8961 12.506L12.9602 12.9979L13.1388 11.956L12.3818 11.2176L13.4283 11.0657L13.8961 10.1176Z" fill="#289678"/>
<path d="M13.3419 5.97174L14.1972 6.59375L15.1942 6.24194L14.8668 7.24758L15.5097 8.0871L14.4523 8.08646L13.8521 8.95715L13.526 7.9512L12.5127 7.64983L13.3683 7.02878L13.3419 5.97174Z" fill="#289678"/>
<path d="M11.9712 3.11054L11.7713 4.14895L12.5135 4.90237L11.4642 5.03313L10.9771 5.97162L10.5286 5.01418L9.48535 4.84068L10.2574 4.1181L10.0997 3.07263L11.0256 3.58348L11.9712 3.11054Z" fill="#289678"/>
<path d="M11.9712 13.7493L11.7713 14.7877L12.5135 15.5408L11.4642 15.6715L10.9771 16.61L10.5286 15.6526L9.48535 15.4794L10.2574 14.7568L10.0997 13.7114L11.0256 14.2222L11.9712 13.7493Z" fill="#289678"/>
</svg>
