<svg width="33" height="37" viewBox="0 0 33 37" fill="none" xmlns="http://www.w3.org/2000/svg">
<path d="M28.7092 2.98692H21.5255C21.4499 2.98692 21.3742 2.98692 21.2986 3.02473C21.223 2.94911 21.1096 2.83568 21.0339 2.76006L18.0092 0.453709C17.1774 -0.151236 16.0431 -0.151236 15.2492 0.453709L12.2244 2.76006C12.111 2.83568 12.0354 2.9113 11.9598 2.98692H4.51138C2.43188 2.98692 0.730469 4.68833 0.730469 6.76783V8.28019C0.730469 9.26323 1.37322 10.095 2.24283 10.3975V32.478C2.24283 34.6331 4.43576 36.2589 6.40183 36.2589H27.1968C29.2763 36.2589 30.9777 34.5575 30.9777 32.478V10.4353C31.8852 10.095 32.4901 9.26323 32.4901 8.28019V6.76783C32.4901 4.68833 30.7887 2.98692 28.7092 2.98692ZM12.8294 4.5749C12.8294 4.31024 12.9428 4.12119 13.094 3.96995L16.1566 1.62579C16.27 1.51236 16.459 1.47455 16.6103 1.47455C16.7615 1.47455 16.9506 1.51236 17.1018 1.62579L20.1265 3.93214C20.3534 4.12119 20.429 4.31024 20.429 4.53709V5.25546C20.429 5.67136 20.0887 6.01164 19.6728 6.01164H13.5856C13.1697 6.01164 12.8294 5.67136 12.8294 5.25546V4.5749ZM30.9777 8.28019C30.9777 8.69609 30.6753 8.96075 30.3728 9.03637C30.3728 9.03637 30.335 9.03637 30.335 9.07418C30.2972 9.07418 30.2594 9.07418 30.2216 9.07418C29.8057 9.07418 29.4654 9.41446 29.4654 9.83036V32.5158C29.4654 33.7635 28.4445 34.7844 27.1968 34.7844H6.40183C5.19194 34.7844 3.7552 33.7635 3.7552 32.5158V10.5487H18.5007C18.9166 10.5487 19.2569 10.2085 19.2569 9.79255C19.2569 9.37665 18.9166 9.03637 18.5007 9.03637H2.99901C2.58311 9.03637 2.24283 8.69609 2.24283 8.28019V6.76783C2.24283 5.52013 3.26368 4.49928 4.51138 4.49928H11.317C11.317 4.53709 11.317 4.53709 11.317 4.5749V5.25546C11.317 6.50316 12.3379 7.52401 13.5856 7.52401H19.6728C20.9205 7.52401 21.9414 6.50316 21.9414 5.25546V4.5749C21.9414 4.53709 21.9414 4.53709 21.9414 4.49928H28.7092C29.9569 4.49928 30.9777 5.52013 30.9777 6.76783V8.28019Z" fill="#289678"/>
<path d="M25.3065 9.03641H24.1722C23.7563 9.03641 23.416 9.37669 23.416 9.79259C23.416 10.2085 23.7563 10.5488 24.1722 10.5488H25.3065C25.7224 10.5488 26.0627 10.2085 26.0627 9.79259C26.0627 9.37669 25.7224 9.03641 25.3065 9.03641Z" fill="#289678"/>
<path d="M8.29166 15.0858H7.53548C7.11958 15.0858 6.7793 15.426 6.7793 15.8419C6.7793 16.2578 7.11958 16.5981 7.53548 16.5981H8.29166C8.70756 16.5981 9.04784 16.2578 9.04784 15.8419C9.04784 15.426 8.70756 15.0858 8.29166 15.0858Z" fill="#289678"/>
<path d="M8.29166 19.6232H7.53548C7.11958 19.6232 6.7793 19.9635 6.7793 20.3794C6.7793 20.7953 7.11958 21.1356 7.53548 21.1356H8.29166C8.70756 21.1356 9.04784 20.7953 9.04784 20.3794C9.04784 19.9635 8.70756 19.6232 8.29166 19.6232Z" fill="#289678"/>
<path d="M11.6956 16.5981H22.2822C22.6981 16.5981 23.0384 16.2578 23.0384 15.8419C23.0384 15.426 22.6981 15.0858 22.2822 15.0858H11.6956C11.2797 15.0858 10.9395 15.426 10.9395 15.8419C10.9395 16.2578 11.2797 16.5981 11.6956 16.5981Z" fill="#289678"/>
<path d="M24.1726 19.6232H11.6956C11.2797 19.6232 10.9395 19.9635 10.9395 20.3794C10.9395 20.7953 11.2797 21.1356 11.6956 21.1356H24.1726C24.5885 21.1356 24.9288 20.7953 24.9288 20.3794C24.9288 19.9635 24.5885 19.6232 24.1726 19.6232Z" fill="#289678"/>
<path d="M8.29166 24.16H7.53548C7.11958 24.16 6.7793 24.5003 6.7793 24.9162C6.7793 25.3321 7.11958 25.6723 7.53548 25.6723H8.29166C8.70756 25.6723 9.04784 25.3321 9.04784 24.9162C9.04784 24.5003 8.70756 24.16 8.29166 24.16Z" fill="#289678"/>
<path d="M20.0136 24.16H11.6956C11.2797 24.16 10.9395 24.5003 10.9395 24.9162C10.9395 25.3321 11.2797 25.6723 11.6956 25.6723H20.0136C20.4295 25.6723 20.7698 25.3321 20.7698 24.9162C20.7698 24.5003 20.4295 24.16 20.0136 24.16Z" fill="#289678"/>
</svg>
