<svg width="35" height="30" viewBox="0 0 35 30" fill="none" xmlns="http://www.w3.org/2000/svg">
<path d="M9.90134 11.9043H4.2832C4.00275 11.9043 3.77539 12.1316 3.77539 12.4121C3.77539 12.6927 4.00275 12.9199 4.2832 12.9199H9.90134C10.1818 12.9199 10.4092 12.6927 10.4092 12.4121C10.4092 12.1316 10.1818 11.9043 9.90134 11.9043Z" fill="#289678"/>
<path d="M9.90134 9.38034H4.2832C4.00275 9.38034 3.77539 9.60764 3.77539 9.88815C3.77539 10.1687 4.00275 10.396 4.2832 10.396H9.90134C10.1818 10.396 10.4092 10.1687 10.4092 9.88815C10.4092 9.60764 10.1818 9.38034 9.90134 9.38034Z" fill="#289678"/>
<path d="M33.5189 19.7185C33.4288 19.7185 33.3492 19.6619 33.3208 19.5778C33.2241 19.2913 33.1069 19.0085 32.9725 18.7374C32.9328 18.657 32.9487 18.5603 33.0127 18.4963C33.4906 18.0184 33.4906 17.2407 33.0127 16.7627L31.8598 15.6098C31.3818 15.132 30.6043 15.1319 30.1261 15.6101C30.0623 15.6738 29.9656 15.6899 29.8853 15.6501C29.614 15.5157 29.3312 15.3985 29.045 15.3018C28.9607 15.2734 28.9041 15.1937 28.9041 15.1037C28.9041 14.4278 28.3541 13.8779 27.6783 13.8779H26.0478C25.3719 13.8779 24.822 14.4278 24.822 15.1037C24.822 15.1937 24.7654 15.2734 24.6813 15.3018C24.3949 15.3985 24.1121 15.5156 23.8409 15.6501C23.7606 15.69 23.6638 15.6739 23.5998 15.6098C23.1219 15.132 22.3443 15.132 21.8664 15.6098L20.7134 16.7628C20.2355 17.2407 20.2355 18.0184 20.7137 18.4965C20.7773 18.5602 20.7934 18.6569 20.7536 18.7373C20.6192 19.0085 20.5021 19.2913 20.4054 19.5776C20.377 19.6618 20.2973 19.7184 20.2072 19.7184C19.5314 19.7184 18.9814 20.2683 18.9814 20.9442V22.5746C18.9814 23.2505 19.5314 23.8004 20.2072 23.8004C20.2973 23.8004 20.3769 23.857 20.4053 23.9412C20.502 24.2275 20.6192 24.5102 20.7536 24.7816C20.7934 24.8619 20.7773 24.9586 20.7135 25.0225C20.2344 25.5015 20.2343 26.277 20.7135 26.7561L21.8664 27.9089C22.3454 28.388 23.1206 28.3882 23.6 27.9088C23.6637 27.8451 23.7606 27.8289 23.8409 27.8689C24.1122 28.0032 24.3949 28.1204 24.6812 28.2171C24.7654 28.2455 24.822 28.3252 24.822 28.4153C24.822 29.0911 25.3719 29.641 26.0478 29.641H27.6783C28.3541 29.641 28.9041 29.0912 28.9041 28.4153C28.9041 28.3252 28.9606 28.2455 29.0449 28.2171C29.3312 28.1204 29.614 28.0033 29.8854 27.8688C29.9656 27.8289 30.0623 27.8451 30.1263 27.9089C30.6053 28.388 31.3807 28.3882 31.8598 27.909L33.0127 26.7561C33.4916 26.2773 33.492 25.5018 33.0125 25.0225C32.9488 24.9588 32.9327 24.8619 32.9725 24.7816C33.1069 24.5104 33.224 24.2277 33.3208 23.9412C33.3492 23.8571 33.4289 23.8005 33.5189 23.8005C34.1948 23.8005 34.7447 23.2506 34.7447 22.5747V20.9443C34.7447 20.2684 34.1948 19.7185 33.5189 19.7185ZM33.7291 22.5746C33.7291 22.6905 33.6348 22.7848 33.5189 22.7848C32.9927 22.7848 32.5264 23.119 32.3585 23.6163C32.2763 23.8597 32.1767 24.1001 32.0624 24.3306C31.829 24.8017 31.9221 25.3683 32.2945 25.7407C32.3765 25.8227 32.3767 25.9558 32.2945 26.0379L31.1416 27.1908C31.06 27.2725 30.927 27.2734 30.8442 27.1906C30.472 26.8183 29.9053 26.7252 29.4344 26.9587C29.2038 27.073 28.9634 27.1725 28.72 27.2548C28.2226 27.4227 27.8885 27.889 27.8885 28.4152C27.8885 28.531 27.7942 28.6254 27.6783 28.6254H26.0479C25.932 28.6254 25.8377 28.531 25.8377 28.4152C25.8377 27.889 25.5036 27.4227 25.0063 27.2548C24.7628 27.1725 24.5225 27.0729 24.292 26.9588C24.119 26.873 23.9331 26.8313 23.7487 26.8313C23.4309 26.8313 23.1175 26.9551 22.8818 27.1908C22.8002 27.2725 22.6671 27.2733 22.5847 27.1908L21.4317 26.0379C21.3504 25.9566 21.3489 25.8237 21.4319 25.7405C21.8041 25.3683 21.8972 24.8018 21.6638 24.3307C21.5495 24.1 21.4499 23.8597 21.3677 23.6162C21.1998 23.1189 20.7334 22.7848 20.2073 22.7848C20.0915 22.7848 19.9971 22.6905 19.9971 22.5746V20.9442C19.9971 20.8284 20.0915 20.7341 20.2073 20.7341C20.7333 20.7341 21.1996 20.3999 21.3677 19.9025C21.4499 19.6591 21.5495 19.4188 21.6637 19.1882C21.8972 18.717 21.804 18.1504 21.4317 17.7782C21.3497 17.6962 21.3497 17.5628 21.4317 17.4809L22.5845 16.328C22.6665 16.246 22.7999 16.2461 22.882 16.3282C23.2542 16.7003 23.8207 16.7936 24.2919 16.5601C24.5225 16.4458 24.7628 16.3462 25.0063 16.264C25.5036 16.0961 25.8376 15.6297 25.8376 15.1037C25.8376 14.9877 25.932 14.8935 26.0478 14.8935H27.6783C27.7941 14.8935 27.8884 14.9878 27.8884 15.1037C27.8884 15.6297 28.2226 16.096 28.72 16.2641C28.9634 16.3462 29.2037 16.4458 29.4343 16.5601C29.9054 16.7935 30.472 16.7003 30.8444 16.328C30.9263 16.246 31.0597 16.246 31.1416 16.328L32.2945 17.4808C32.3764 17.5628 32.3764 17.6962 32.2943 17.7783C31.9221 18.1504 31.829 18.717 32.0624 19.1883C32.1767 19.4187 32.2763 19.6591 32.3585 19.9026C32.5264 20.4 32.9927 20.7341 33.5188 20.7341C33.6347 20.7341 33.729 20.8284 33.729 20.9442V22.5746H33.7291Z" fill="#289678"/>
<path d="M26.8636 18.2954C24.9534 18.2954 23.3994 19.8494 23.3994 21.7596C23.3994 23.6698 24.9534 25.2238 26.8636 25.2238C28.7738 25.2238 30.3278 23.6698 30.3278 21.7596C30.3278 19.8494 28.7738 18.2954 26.8636 18.2954ZM26.8636 24.2082C25.5135 24.2082 24.415 23.1097 24.415 21.7596C24.415 20.4095 25.5135 19.311 26.8636 19.311C28.2138 19.311 29.3122 20.4095 29.3122 21.7596C29.3122 23.1097 28.2138 24.2082 26.8636 24.2082Z" fill="#289678"/>
<path d="M18.6196 25.9527C18.6195 25.9527 18.6194 25.9527 18.6194 25.9527L2.40295 25.9581C2.40281 25.9581 2.40268 25.9581 2.40254 25.9581C1.67935 25.9581 1.09381 25.3728 1.09381 24.6493V7.91636C1.09381 7.19473 1.68091 6.60756 2.40261 6.60756H18.027C18.9341 6.60756 19.7638 6.0745 20.141 5.24954L21.7264 1.78147C21.9387 1.31712 22.4059 1.01691 22.9165 1.01684L30.1152 1.01562H30.1155C30.8386 1.01562 31.4242 1.60082 31.4242 2.32435L31.4254 13.8123C31.4254 14.0928 31.6528 14.32 31.9333 14.32C32.2137 14.32 32.4411 14.0927 32.441 13.8122L32.4399 2.32421C32.4397 1.03986 31.4005 0 30.1155 0C30.1154 0 30.1152 0 30.115 0L22.9163 0.00121859C22.0094 0.00142172 21.1798 0.53442 20.8027 1.35924L20.5331 1.94898L2.40322 1.94403C2.40302 1.94403 2.40281 1.94403 2.40261 1.94403C1.11819 1.94403 0.078125 2.98335 0.078125 4.26845V24.6493C0.078125 25.9337 1.11738 26.9737 2.40247 26.9737H2.40322L18.6197 26.9683C18.9001 26.9683 19.1274 26.7408 19.1274 26.4603C19.1272 26.18 18.8999 25.9527 18.6196 25.9527ZM2.40261 2.95965H2.40295L20.0688 2.96453L19.2172 4.82731C19.0049 5.29179 18.5376 5.59194 18.0269 5.59194H2.40254C1.91748 5.59194 1.46682 5.74151 1.09375 5.99663V4.26845C1.09375 3.54519 1.67901 2.95965 2.40261 2.95965Z" fill="#289678"/>
</svg>
