<svg width="25" height="30" viewBox="0 0 25 30" fill="none" xmlns="http://www.w3.org/2000/svg">
<path d="M16.7396 2.7262C16.4219 2.7262 16.1641 2.98402 16.1641 3.30169C16.1641 3.61936 16.4219 3.87718 16.7396 3.87718C17.0572 3.87718 17.315 3.61936 17.315 3.30169C17.315 2.98402 17.0572 2.7262 16.7396 2.7262Z" fill="#289678"/>
<path d="M7.53155 2.7262C7.21387 2.7262 6.95605 2.98402 6.95605 3.30169C6.95605 3.61936 7.21387 3.87718 7.53155 3.87718C7.84922 3.87718 8.10704 3.61936 8.10704 3.30169C8.10704 2.98402 7.84922 2.7262 7.53155 2.7262Z" fill="#289678"/>
<path d="M24.1046 28.916L20.2965 24.9376C21.8349 24.8824 23.0697 23.6145 23.0697 22.0628V4.98623C23.0697 4.05641 22.7447 3.1484 22.1545 2.42944C21.5639 1.71065 20.7365 1.21533 19.8249 1.03503C17.7824 0.629767 15.6912 0.424316 13.6093 0.424316H10.569C8.58889 0.424316 6.52638 0.613998 4.43931 1.03111C2.56292 1.40651 1.20108 3.068 1.20108 4.98163V22.0628C1.20108 23.6275 2.4568 24.9037 4.01333 24.9385L0.162209 28.9135C0.00135933 29.0795 -0.0445646 29.3256 0.0456147 29.5383C0.135679 29.7511 0.344409 29.8894 0.575526 29.8894H4.69028C4.87478 29.8894 5.04807 29.801 5.15631 29.6516L6.90201 27.2422H17.42L19.1657 29.6516C19.274 29.801 19.4473 29.8894 19.6317 29.8894H23.6889C23.9194 29.8894 24.1276 29.7519 24.2182 29.54C24.3087 29.328 24.264 29.0825 24.1046 28.916ZM2.35207 22.0628V4.98163C2.35207 3.61466 3.32482 2.42789 4.66496 2.15971C6.54353 1.78426 8.52857 1.5753 10.5689 1.5753H13.6092C15.6161 1.5753 17.632 1.77332 19.6011 2.16397C20.2522 2.29282 20.8433 2.64663 21.265 3.15991C21.6865 3.67342 21.9187 4.322 21.9187 4.98617V22.0628C21.9187 23.0147 21.1442 23.7892 20.1922 23.7892H4.07848C3.12656 23.7892 2.35207 23.0147 2.35207 22.0628ZM4.39661 28.7384H1.93437L5.61423 24.9402H7.1486L4.39661 28.7384ZM7.73595 26.0912L8.56989 24.9402H15.7522L16.5861 26.0912H7.73595ZM19.9254 28.7384L17.1735 24.9402H18.7058L22.3414 28.7384H19.9254Z" fill="#289678"/>
<path d="M20.1922 5.02826H4.07842C3.76063 5.02826 3.50293 5.28596 3.50293 5.60375V15.1569C3.50293 15.4747 3.76063 15.7324 4.07842 15.7324H20.1922C20.5099 15.7324 20.7676 15.4747 20.7676 15.1569V5.60375C20.7676 5.28596 20.5099 5.02826 20.1922 5.02826ZM11.5598 14.5814H4.65391V6.17924H11.5598V14.5814ZM19.6167 14.5814H12.7108V6.17924H19.6167V14.5814Z" fill="#289678"/>
<path d="M14.4372 2.7262H9.8333C9.51552 2.7262 9.25781 2.9839 9.25781 3.30169C9.25781 3.61947 9.51552 3.87718 9.8333 3.87718H14.4372C14.755 3.87718 15.0127 3.61947 15.0127 3.30169C15.0127 2.9839 14.755 2.7262 14.4372 2.7262Z" fill="#289678"/>
<path d="M18.466 17.459C17.1967 17.459 16.1641 18.4916 16.1641 19.7609C16.1641 21.0302 17.1967 22.0629 18.466 22.0629C19.7353 22.0629 20.768 21.0302 20.768 19.7609C20.768 18.4916 19.7353 17.459 18.466 17.459ZM18.466 20.9119C17.8314 20.9119 17.315 20.3956 17.315 19.7609C17.315 19.1263 17.8314 18.61 18.466 18.61C19.1007 18.61 19.617 19.1263 19.617 19.7609C19.617 20.3956 19.1007 20.9119 18.466 20.9119Z" fill="#289678"/>
<path d="M5.80489 17.459C4.53559 17.459 3.50293 18.4916 3.50293 19.7609C3.50293 21.0302 4.53565 22.0629 5.80489 22.0629C7.07419 22.0629 8.10685 21.0302 8.10685 19.7609C8.10685 18.4916 7.07419 17.459 5.80489 17.459ZM5.80489 20.9119C5.17024 20.9119 4.65391 20.3956 4.65391 19.7609C4.65391 19.1263 5.17024 18.61 5.80489 18.61C6.43954 18.61 6.95587 19.1263 6.95587 19.7609C6.95587 20.3956 6.43954 20.9119 5.80489 20.9119Z" fill="#289678"/>
<path d="M14.4372 18.0344H9.8333C9.51552 18.0344 9.25781 18.2921 9.25781 18.6099C9.25781 18.9276 9.51552 19.1853 9.8333 19.1853H14.4372C14.755 19.1853 15.0127 18.9276 15.0127 18.6099C15.0127 18.2921 14.7551 18.0344 14.4372 18.0344Z" fill="#289678"/>
<path d="M14.4372 20.3362H9.8333C9.51552 20.3362 9.25781 20.5939 9.25781 20.9117C9.25781 21.2295 9.51552 21.4872 9.8333 21.4872H14.4372C14.755 21.4872 15.0127 21.2295 15.0127 20.9117C15.0127 20.5939 14.7551 20.3362 14.4372 20.3362Z" fill="#289678"/>
</svg>
