<svg width="39" height="39" viewBox="0 0 39 39" fill="none" xmlns="http://www.w3.org/2000/svg">
<circle cx="19.5" cy="19.5" r="19.5" fill="#F9F7F6"/>
<path d="M17.3523 19.5023L21.8097 15.3871C21.9325 15.274 22 15.1229 22 14.9617C22 14.8005 21.9325 14.6494 21.8097 14.5362L21.4192 14.1758C21.2966 14.0624 21.1328 14 20.9582 14C20.7837 14 20.6201 14.0624 20.4974 14.1758L15.1901 19.0754C15.0669 19.189 14.9995 19.3407 15 19.5021C14.9995 19.6641 15.0668 19.8157 15.1901 19.9294L20.4925 24.8242C20.6151 24.9376 20.7787 25 20.9534 25C21.128 25 21.2916 24.9376 21.4143 24.8242L21.8048 24.4638C22.0589 24.2292 22.0589 23.8473 21.8048 23.6128L17.3523 19.5023Z" fill="#B9B9B9"/>
</svg>
