<svg width="39" height="39" viewBox="0 0 39 39" fill="none" xmlns="http://www.w3.org/2000/svg">
<circle cx="19.5" cy="19.5" r="19.5" fill="#289678"/>
<path d="M20.6478 19.5116L16.1425 23.5744C16.0184 23.686 15.9492 23.8363 15.9473 23.9975C15.9454 24.1587 16.0111 24.3106 16.1325 24.4252L16.5189 24.7901C16.6401 24.905 16.8032 24.9693 16.9777 24.9713C17.1523 24.9734 17.3166 24.9129 17.4406 24.8009L22.8048 19.9638C22.9293 19.8516 22.9985 19.7007 22.9999 19.5393C23.0023 19.3773 22.9367 19.2249 22.8148 19.1098L17.57 14.1534C17.4487 14.0385 17.2858 13.9742 17.1112 13.9722C16.9366 13.9701 16.7723 14.0306 16.6482 14.1426L16.2536 14.4984C15.9967 14.73 15.9923 15.1118 16.2436 15.3493L20.6478 19.5116Z" fill="white"/>
</svg>
